  <svg
    viewBox="0 0 24 24"
    fill="currentColor"
  >
    <path d="M12 2.163c3.204 0 3.584.012 4.85.07 1.17.054 1.805.249 2.227.419.562.217.96.477 1.382.896.419.42.679.819.896 1.381.17.422.365 1.057.419 2.227.058 1.265.07 1.645.07 4.85s-.012 3.584-.07 4.85c-.054 1.17-.249 1.805-.419 2.227-.217.562-.477.96-.896 1.382-.42.419-.819.679-1.381.896-.422.17-1.057.365-2.227.419-1.266.058-1.646.07-4.85.07s-3.584-.012-4.85-.07c-1.17-.054-1.805-.249-2.227-.419-.562-.217-.96-.477-1.382-.896-.419-.42-.679-.819-.896-1.381-.17-.422-.365-1.057-.419-2.227-.058-1.266-.07-1.646-.07-4.85s.012-3.584.07-4.85c.054-1.17.249-1.805.419-2.227.217-.562.477-.96.896-1.382.42-.419.819-.679 1.381-.896.422-.17 1.057-.365 2.227-.419 1.266-.058 1.646-.07 4.85-.07zm0-2.163c-3.259 0-3.667.014-4.947.072-1.277.058-2.148.261-2.913.558-.789.306-1.459.717-2.126 1.384s-1.078 1.337-1.384 2.126c-.297.765-.5 1.636-.558 2.913-.058 1.28-.072 1.688-.072 4.947s.014 3.667.072 4.947c.058 1.277.261 2.148.558 2.913.306.789.717 1.459 1.384 2.126s1.337 1.078 2.126 1.384c.765.297 1.636.5 2.913.558 1.28.058 1.688.072 4.947.072s3.667-.014 4.947-.072c1.277-.058 2.148-.261 2.913-.558.789-.306 1.459-.717 2.126-1.384s1.078-1.337 1.384-2.126c.297-.765.5-1.636.558-2.913.058-1.28.072-1.688.072-4.947s-.014-3.667-.072-4.947c-.058-1.277-.261-2.148-.558-2.913-.306-.789-.717-1.459-1.384-2.126s-1.337-1.078-2.126-1.384c-.765-.297-1.636-.5-2.913-.558-1.28-.058-1.688-.072-4.947-.072zm0 5.838c-3.403 0-6.162 2.759-6.162 6.162s2.759 6.162 6.162 6.162 6.162-2.759 6.162-6.162-2.759-6.162-6.162-6.162zm0 10.162c-2.209 0-4-1.791-4-4s1.791-4 4-4 4 1.791 4 4-1.791 4-4 4zm6.406-11.845c-.796 0-1.441.645-1.441 1.441s.645 1.441 1.441 1.441c.795 0 1.441-.645 1.441-1.441s-.646-1.441-1.441-1.441z"/>
  </svg>