  <svg 
    viewBox="0 0 24 24" 
    fill="currentColor"
  >
    <path d="M19.321 5.562a5.124 5.124 0 0 1-.443-.258 6.228 6.228 0 0 1-1.137-1.022C16.396 2.877 16 1.333 16 1h-4v15.5c0 1.933-1.567 3.5-3.5 3.5S5 18.433 5 16.5 6.567 13 8.5 13c.553 0 1.079.126 1.549.354L10 9.996c-.825-.203-1.685-.31-2.571-.31C3.373 9.686 0 13.059 0 17.115 0 21.171 3.373 24.544 7.429 24.544c4.056 0 7.429-3.373 7.429-7.429V9.825c1.327.898 2.896 1.377 4.523 1.377V7.203c-0.023 0-0.043.003-0.066.003-.976 0-1.895-.277-2.668-.759L16.647 9.3v7.815c0 4.056-3.373 7.429-7.429 7.429C5.162 24.544 1.789 21.171 1.789 17.115c0-3.725 2.844-6.789 6.477-7.159v3.982c-1.779.411-3.109 2.009-3.109 3.922 0 2.208 1.791 4 4 4s4-1.792 4-4V1h-4.667C8.49 3.304 6.949 4.694 4.789 5.562v3.876c1.115-.401 2.314-.623 3.569-.623 1.344 0 2.619.268 3.784.752V5.562h7.179Z"/>
  </svg>